<mxfile host="app.diagrams.net" modified="2023-07-19T03:05:49.100Z" agent="Mozilla/5.0 (X11; Linux x86_64; rv:109.0) Gecko/20100101 Firefox/115.0" etag="5GHvpVimyNm6xafhm1Ff" version="21.5.0">
  <diagram name="Página-1" id="_BBzRFqypRIonCh25nqs">
    <mxGraphModel dx="1687" dy="893" grid="1" gridSize="10" guides="1" tooltips="1" connect="1" arrows="1" fold="1" page="1" pageScale="1" pageWidth="827" pageHeight="1169" math="0" shadow="0">
      <root>
        <mxCell id="0" />
        <mxCell id="1" parent="0" />
        <mxCell id="8GlcsTd-VcIJwiDAIykF-2" style="rounded=0;orthogonalLoop=1;jettySize=auto;html=1;" edge="1" parent="1" source="8GlcsTd-VcIJwiDAIykF-1" target="8GlcsTd-VcIJwiDAIykF-4">
          <mxGeometry relative="1" as="geometry">
            <mxPoint x="440" y="125" as="targetPoint" />
          </mxGeometry>
        </mxCell>
        <mxCell id="8GlcsTd-VcIJwiDAIykF-1" value="&lt;div&gt;Inicio&lt;/div&gt;&lt;div&gt;20/06/23&lt;br&gt;&lt;/div&gt;" style="ellipse;whiteSpace=wrap;html=1;fontStyle=1" vertex="1" parent="1">
          <mxGeometry x="294" y="75" width="120" height="80" as="geometry" />
        </mxCell>
        <mxCell id="8GlcsTd-VcIJwiDAIykF-48" style="rounded=0;orthogonalLoop=1;jettySize=auto;html=1;entryX=0;entryY=0.5;entryDx=0;entryDy=0;exitX=0.5;exitY=0;exitDx=0;exitDy=0;fontColor=#FF0000;fontStyle=1;strokeWidth=2;strokeColor=#FF0000;" edge="1" parent="1" source="8GlcsTd-VcIJwiDAIykF-4" target="8GlcsTd-VcIJwiDAIykF-6">
          <mxGeometry relative="1" as="geometry" />
        </mxCell>
        <mxCell id="8GlcsTd-VcIJwiDAIykF-49" style="rounded=0;orthogonalLoop=1;jettySize=auto;html=1;entryX=0;entryY=0.5;entryDx=0;entryDy=0;exitX=0.5;exitY=1;exitDx=0;exitDy=0;" edge="1" parent="1" source="8GlcsTd-VcIJwiDAIykF-4" target="8GlcsTd-VcIJwiDAIykF-7">
          <mxGeometry relative="1" as="geometry" />
        </mxCell>
        <mxCell id="8GlcsTd-VcIJwiDAIykF-4" value="&lt;div&gt;1.1 Definición de requerimientos&lt;/div&gt;&lt;div&gt;t=10&lt;br&gt;&lt;/div&gt;" style="rounded=0;whiteSpace=wrap;html=1;fillColor=#f5f5f5;fontColor=#333333;strokeColor=#666666;" vertex="1" parent="1">
          <mxGeometry x="460" y="85" width="120" height="60" as="geometry" />
        </mxCell>
        <mxCell id="8GlcsTd-VcIJwiDAIykF-52" style="edgeStyle=orthogonalEdgeStyle;rounded=0;orthogonalLoop=1;jettySize=auto;html=1;entryX=0.5;entryY=0;entryDx=0;entryDy=0;strokeWidth=2;strokeColor=#FF0000;" edge="1" parent="1" source="8GlcsTd-VcIJwiDAIykF-5" target="8GlcsTd-VcIJwiDAIykF-8">
          <mxGeometry relative="1" as="geometry" />
        </mxCell>
        <mxCell id="8GlcsTd-VcIJwiDAIykF-107" style="edgeStyle=orthogonalEdgeStyle;rounded=0;orthogonalLoop=1;jettySize=auto;html=1;entryX=1;entryY=0.5;entryDx=0;entryDy=0;" edge="1" parent="1" source="8GlcsTd-VcIJwiDAIykF-5" target="8GlcsTd-VcIJwiDAIykF-11">
          <mxGeometry relative="1" as="geometry">
            <Array as="points">
              <mxPoint x="950" y="100" />
              <mxPoint x="950" y="335" />
            </Array>
          </mxGeometry>
        </mxCell>
        <mxCell id="8GlcsTd-VcIJwiDAIykF-5" value="&lt;div&gt;1.3 Revisión de la planificación&lt;/div&gt;&lt;div&gt;t=2&lt;br&gt;&lt;/div&gt;" style="rounded=0;whiteSpace=wrap;html=1;fillColor=#f5f5f5;fontColor=#333333;strokeColor=#666666;" vertex="1" parent="1">
          <mxGeometry x="810" y="75" width="120" height="60" as="geometry" />
        </mxCell>
        <mxCell id="8GlcsTd-VcIJwiDAIykF-50" style="rounded=0;orthogonalLoop=1;jettySize=auto;html=1;entryX=0;entryY=0.25;entryDx=0;entryDy=0;exitX=1;exitY=0.5;exitDx=0;exitDy=0;fontColor=#FF0000;fontStyle=1;strokeWidth=2;strokeColor=#FF0000;" edge="1" parent="1" source="8GlcsTd-VcIJwiDAIykF-6" target="8GlcsTd-VcIJwiDAIykF-5">
          <mxGeometry relative="1" as="geometry" />
        </mxCell>
        <mxCell id="8GlcsTd-VcIJwiDAIykF-6" value="&lt;div&gt;1.2 Armado de la planificación&lt;/div&gt;&lt;div&gt;t=32&lt;br&gt;&lt;/div&gt;" style="rounded=0;whiteSpace=wrap;html=1;fillColor=#f5f5f5;fontColor=#333333;strokeColor=#666666;" vertex="1" parent="1">
          <mxGeometry x="620" y="45" width="120" height="60" as="geometry" />
        </mxCell>
        <mxCell id="8GlcsTd-VcIJwiDAIykF-51" style="rounded=0;orthogonalLoop=1;jettySize=auto;html=1;exitX=1;exitY=0.5;exitDx=0;exitDy=0;entryX=0;entryY=0.75;entryDx=0;entryDy=0;" edge="1" parent="1" source="8GlcsTd-VcIJwiDAIykF-7" target="8GlcsTd-VcIJwiDAIykF-5">
          <mxGeometry relative="1" as="geometry" />
        </mxCell>
        <mxCell id="8GlcsTd-VcIJwiDAIykF-7" value="&lt;div&gt;1.4 Revisión de requerimientos con el director&lt;/div&gt;&lt;div&gt;t=2&lt;br&gt;&lt;/div&gt;" style="rounded=0;whiteSpace=wrap;html=1;fillColor=#f5f5f5;fontColor=#333333;strokeColor=#666666;" vertex="1" parent="1">
          <mxGeometry x="615" y="135" width="120" height="60" as="geometry" />
        </mxCell>
        <mxCell id="8GlcsTd-VcIJwiDAIykF-53" style="edgeStyle=orthogonalEdgeStyle;rounded=0;orthogonalLoop=1;jettySize=auto;html=1;entryX=1;entryY=0.5;entryDx=0;entryDy=0;strokeWidth=2;strokeColor=#FF0000;" edge="1" parent="1" source="8GlcsTd-VcIJwiDAIykF-8" target="8GlcsTd-VcIJwiDAIykF-9">
          <mxGeometry relative="1" as="geometry" />
        </mxCell>
        <mxCell id="8GlcsTd-VcIJwiDAIykF-8" value="&lt;div&gt;2.1 Investigación de microcontrolador y plataforma a usar&lt;/div&gt;&lt;div&gt;t=8&lt;br&gt;&lt;/div&gt;" style="rounded=0;whiteSpace=wrap;html=1;fillColor=#d5e8d4;strokeColor=#82b366;" vertex="1" parent="1">
          <mxGeometry x="810" y="210" width="120" height="60" as="geometry" />
        </mxCell>
        <mxCell id="8GlcsTd-VcIJwiDAIykF-54" style="edgeStyle=orthogonalEdgeStyle;rounded=0;orthogonalLoop=1;jettySize=auto;html=1;strokeWidth=2;strokeColor=#FF0000;" edge="1" parent="1" source="8GlcsTd-VcIJwiDAIykF-9" target="8GlcsTd-VcIJwiDAIykF-10">
          <mxGeometry relative="1" as="geometry" />
        </mxCell>
        <mxCell id="8GlcsTd-VcIJwiDAIykF-9" value="&lt;div&gt;2.2 Investigación de módulos y sensores a adquirir&lt;/div&gt;&lt;div&gt;t=12&lt;br&gt;&lt;/div&gt;" style="rounded=0;whiteSpace=wrap;html=1;fillColor=#d5e8d4;strokeColor=#82b366;" vertex="1" parent="1">
          <mxGeometry x="640" y="210" width="120" height="60" as="geometry" />
        </mxCell>
        <mxCell id="8GlcsTd-VcIJwiDAIykF-55" style="edgeStyle=orthogonalEdgeStyle;rounded=0;orthogonalLoop=1;jettySize=auto;html=1;entryX=1;entryY=0.5;entryDx=0;entryDy=0;strokeWidth=2;strokeColor=#FF0000;" edge="1" parent="1" source="8GlcsTd-VcIJwiDAIykF-10" target="8GlcsTd-VcIJwiDAIykF-14">
          <mxGeometry relative="1" as="geometry" />
        </mxCell>
        <mxCell id="8GlcsTd-VcIJwiDAIykF-10" value="&lt;div&gt;2.3 Análisis del consumo de energía del dispositivo y los módulos&lt;/div&gt;&lt;div&gt;t=8&lt;br&gt;&lt;/div&gt;" style="rounded=0;whiteSpace=wrap;html=1;fillColor=#d5e8d4;strokeColor=#82b366;" vertex="1" parent="1">
          <mxGeometry x="460" y="200" width="120" height="80" as="geometry" />
        </mxCell>
        <mxCell id="8GlcsTd-VcIJwiDAIykF-58" style="edgeStyle=orthogonalEdgeStyle;rounded=0;orthogonalLoop=1;jettySize=auto;html=1;" edge="1" parent="1" source="8GlcsTd-VcIJwiDAIykF-11" target="8GlcsTd-VcIJwiDAIykF-12">
          <mxGeometry relative="1" as="geometry" />
        </mxCell>
        <mxCell id="8GlcsTd-VcIJwiDAIykF-11" value="&lt;div&gt;2.4 Investigación y comparación de proveedores &lt;i&gt;cloud&lt;/i&gt;&lt;/div&gt;&lt;div&gt;t=8&lt;br&gt;&lt;/div&gt;" style="rounded=0;whiteSpace=wrap;html=1;fillColor=#d5e8d4;strokeColor=#82b366;" vertex="1" parent="1">
          <mxGeometry x="810" y="305" width="120" height="60" as="geometry" />
        </mxCell>
        <mxCell id="8GlcsTd-VcIJwiDAIykF-59" style="edgeStyle=orthogonalEdgeStyle;rounded=0;orthogonalLoop=1;jettySize=auto;html=1;" edge="1" parent="1" source="8GlcsTd-VcIJwiDAIykF-12" target="8GlcsTd-VcIJwiDAIykF-13">
          <mxGeometry relative="1" as="geometry" />
        </mxCell>
        <mxCell id="8GlcsTd-VcIJwiDAIykF-12" value="&lt;div&gt;2.5 Análisis de tecnologías web&lt;/div&gt;&lt;div&gt;t=8&lt;br&gt;&lt;/div&gt;" style="rounded=0;whiteSpace=wrap;html=1;fillColor=#d5e8d4;strokeColor=#82b366;" vertex="1" parent="1">
          <mxGeometry x="610" y="305" width="120" height="60" as="geometry" />
        </mxCell>
        <mxCell id="8GlcsTd-VcIJwiDAIykF-62" style="edgeStyle=orthogonalEdgeStyle;rounded=0;orthogonalLoop=1;jettySize=auto;html=1;entryX=0.75;entryY=0;entryDx=0;entryDy=0;" edge="1" parent="1" source="8GlcsTd-VcIJwiDAIykF-13" target="8GlcsTd-VcIJwiDAIykF-15">
          <mxGeometry relative="1" as="geometry" />
        </mxCell>
        <mxCell id="8GlcsTd-VcIJwiDAIykF-13" value="&lt;div&gt;2.6 Investigación de servicios para interfaz web receptora de SMS&lt;/div&gt;&lt;div&gt;t=12&lt;br&gt;&lt;/div&gt;" style="rounded=0;whiteSpace=wrap;html=1;fillColor=#d5e8d4;strokeColor=#82b366;" vertex="1" parent="1">
          <mxGeometry x="414" y="300" width="140" height="70" as="geometry" />
        </mxCell>
        <mxCell id="8GlcsTd-VcIJwiDAIykF-61" style="edgeStyle=orthogonalEdgeStyle;rounded=0;orthogonalLoop=1;jettySize=auto;html=1;entryX=0.568;entryY=-0.03;entryDx=0;entryDy=0;entryPerimeter=0;strokeWidth=2;strokeColor=#FF0000;" edge="1" parent="1" source="8GlcsTd-VcIJwiDAIykF-14" target="8GlcsTd-VcIJwiDAIykF-15">
          <mxGeometry relative="1" as="geometry" />
        </mxCell>
        <mxCell id="8GlcsTd-VcIJwiDAIykF-14" value="&lt;div&gt;2.7 Definición de entornos de desarrollo para la programación embebida y web&lt;/div&gt;&lt;div&gt;t=4&lt;br&gt;&lt;/div&gt;" style="rounded=0;whiteSpace=wrap;html=1;fillColor=#d5e8d4;strokeColor=#82b366;" vertex="1" parent="1">
          <mxGeometry x="244" y="200" width="170" height="80" as="geometry" />
        </mxCell>
        <mxCell id="8GlcsTd-VcIJwiDAIykF-63" style="edgeStyle=orthogonalEdgeStyle;rounded=0;orthogonalLoop=1;jettySize=auto;html=1;entryX=0;entryY=0.5;entryDx=0;entryDy=0;strokeWidth=2;strokeColor=#FF0000;" edge="1" parent="1" source="8GlcsTd-VcIJwiDAIykF-15" target="8GlcsTd-VcIJwiDAIykF-16">
          <mxGeometry relative="1" as="geometry" />
        </mxCell>
        <mxCell id="8GlcsTd-VcIJwiDAIykF-15" value="&lt;div&gt;3.1 &lt;i&gt;Setup&lt;/i&gt; inicial del firmware&lt;/div&gt;&lt;div&gt;t=6&lt;br&gt;&lt;/div&gt;" style="rounded=0;whiteSpace=wrap;html=1;fillColor=#e1d5e7;strokeColor=#9673a6;" vertex="1" parent="1">
          <mxGeometry x="260" y="395" width="120" height="60" as="geometry" />
        </mxCell>
        <mxCell id="8GlcsTd-VcIJwiDAIykF-64" style="edgeStyle=orthogonalEdgeStyle;rounded=0;orthogonalLoop=1;jettySize=auto;html=1;strokeWidth=2;strokeColor=#FF0000;" edge="1" parent="1" source="8GlcsTd-VcIJwiDAIykF-16" target="8GlcsTd-VcIJwiDAIykF-17">
          <mxGeometry relative="1" as="geometry" />
        </mxCell>
        <mxCell id="8GlcsTd-VcIJwiDAIykF-16" value="&lt;div&gt;3.2 Diagrama esquemático del dispositivo y sus módulos&lt;/div&gt;&lt;div&gt;t=8&lt;br&gt;&lt;/div&gt;" style="rounded=0;whiteSpace=wrap;html=1;fillColor=#e1d5e7;strokeColor=#9673a6;" vertex="1" parent="1">
          <mxGeometry x="435" y="390" width="140" height="70" as="geometry" />
        </mxCell>
        <mxCell id="8GlcsTd-VcIJwiDAIykF-65" style="edgeStyle=orthogonalEdgeStyle;rounded=0;orthogonalLoop=1;jettySize=auto;html=1;strokeWidth=2;strokeColor=#FF0000;" edge="1" parent="1" source="8GlcsTd-VcIJwiDAIykF-17" target="8GlcsTd-VcIJwiDAIykF-18">
          <mxGeometry relative="1" as="geometry" />
        </mxCell>
        <mxCell id="8GlcsTd-VcIJwiDAIykF-17" value="&lt;div&gt;3.3 Realizar pruebas iniciales de conexión del dispositivo y sus módulos&lt;/div&gt;&lt;div&gt;t=8&lt;br&gt;&lt;/div&gt;" style="rounded=0;whiteSpace=wrap;html=1;fillColor=#e1d5e7;strokeColor=#9673a6;" vertex="1" parent="1">
          <mxGeometry x="610" y="390" width="140" height="70" as="geometry" />
        </mxCell>
        <mxCell id="8GlcsTd-VcIJwiDAIykF-66" style="edgeStyle=orthogonalEdgeStyle;rounded=0;orthogonalLoop=1;jettySize=auto;html=1;strokeWidth=2;strokeColor=#FF0000;" edge="1" parent="1" source="8GlcsTd-VcIJwiDAIykF-18" target="8GlcsTd-VcIJwiDAIykF-19">
          <mxGeometry relative="1" as="geometry" />
        </mxCell>
        <mxCell id="8GlcsTd-VcIJwiDAIykF-18" value="&lt;div&gt;3.4 Desarrollo del sistema asociado al módulo de telefonía móvil&lt;/div&gt;&lt;div&gt;t=16&lt;br&gt;&lt;/div&gt;" style="rounded=0;whiteSpace=wrap;html=1;fillColor=#e1d5e7;strokeColor=#9673a6;" vertex="1" parent="1">
          <mxGeometry x="785" y="390" width="140" height="70" as="geometry" />
        </mxCell>
        <mxCell id="8GlcsTd-VcIJwiDAIykF-67" style="edgeStyle=orthogonalEdgeStyle;rounded=0;orthogonalLoop=1;jettySize=auto;html=1;strokeWidth=2;strokeColor=#FF0000;" edge="1" parent="1" source="8GlcsTd-VcIJwiDAIykF-19" target="8GlcsTd-VcIJwiDAIykF-20">
          <mxGeometry relative="1" as="geometry" />
        </mxCell>
        <mxCell id="8GlcsTd-VcIJwiDAIykF-19" value="&lt;div&gt;3.5 Desarrollo del sistema asociado al módulo de localización satelital&lt;/div&gt;&lt;div&gt;t=12&lt;br&gt;&lt;/div&gt;" style="rounded=0;whiteSpace=wrap;html=1;fillColor=#e1d5e7;strokeColor=#9673a6;" vertex="1" parent="1">
          <mxGeometry x="785" y="495" width="140" height="80" as="geometry" />
        </mxCell>
        <mxCell id="8GlcsTd-VcIJwiDAIykF-68" style="edgeStyle=orthogonalEdgeStyle;rounded=0;orthogonalLoop=1;jettySize=auto;html=1;strokeWidth=2;strokeColor=#FF0000;" edge="1" parent="1" source="8GlcsTd-VcIJwiDAIykF-20" target="8GlcsTd-VcIJwiDAIykF-21">
          <mxGeometry relative="1" as="geometry" />
        </mxCell>
        <mxCell id="8GlcsTd-VcIJwiDAIykF-20" value="&lt;div&gt;3.6 Desarrollo del sistema asociado al módulo de configuración y almacenamiento de parámetros&lt;/div&gt;&lt;div&gt;t=16&lt;br&gt;&lt;/div&gt;" style="rounded=0;whiteSpace=wrap;html=1;fillColor=#e1d5e7;strokeColor=#9673a6;" vertex="1" parent="1">
          <mxGeometry x="585" y="490" width="150" height="90" as="geometry" />
        </mxCell>
        <mxCell id="8GlcsTd-VcIJwiDAIykF-69" style="edgeStyle=orthogonalEdgeStyle;rounded=0;orthogonalLoop=1;jettySize=auto;html=1;strokeWidth=2;strokeColor=#FF0000;" edge="1" parent="1" source="8GlcsTd-VcIJwiDAIykF-21" target="8GlcsTd-VcIJwiDAIykF-22">
          <mxGeometry relative="1" as="geometry" />
        </mxCell>
        <mxCell id="8GlcsTd-VcIJwiDAIykF-21" value="&lt;div&gt;3.7 Desarrollo del sistema asociado a la gestión del estado del dispositivo&lt;/div&gt;&lt;div&gt;t=20&lt;br&gt;&lt;/div&gt;" style="rounded=0;whiteSpace=wrap;html=1;fillColor=#e1d5e7;strokeColor=#9673a6;" vertex="1" parent="1">
          <mxGeometry x="395" y="490" width="150" height="90" as="geometry" />
        </mxCell>
        <mxCell id="8GlcsTd-VcIJwiDAIykF-72" style="edgeStyle=orthogonalEdgeStyle;rounded=0;orthogonalLoop=1;jettySize=auto;html=1;strokeWidth=2;strokeColor=#FF0000;" edge="1" parent="1" source="8GlcsTd-VcIJwiDAIykF-22" target="8GlcsTd-VcIJwiDAIykF-24">
          <mxGeometry relative="1" as="geometry" />
        </mxCell>
        <mxCell id="8GlcsTd-VcIJwiDAIykF-22" value="&lt;div&gt;3.8 Desarrollo del sistema asociado al módulo de alertas&lt;/div&gt;&lt;div&gt;t=12&lt;br&gt;&lt;/div&gt;" style="rounded=0;whiteSpace=wrap;html=1;fillColor=#e1d5e7;strokeColor=#9673a6;" vertex="1" parent="1">
          <mxGeometry x="210" y="490" width="150" height="90" as="geometry" />
        </mxCell>
        <mxCell id="8GlcsTd-VcIJwiDAIykF-73" style="edgeStyle=orthogonalEdgeStyle;rounded=0;orthogonalLoop=1;jettySize=auto;html=1;strokeWidth=2;strokeColor=#FF0000;" edge="1" parent="1" source="8GlcsTd-VcIJwiDAIykF-24" target="8GlcsTd-VcIJwiDAIykF-25">
          <mxGeometry relative="1" as="geometry" />
        </mxCell>
        <mxCell id="8GlcsTd-VcIJwiDAIykF-24" value="&lt;div&gt;3.9 Desarrollo del sistema asociado al manejo de batería y energía del dispositivo&lt;/div&gt;&lt;div&gt;t=16&lt;br&gt;&lt;/div&gt;" style="rounded=0;whiteSpace=wrap;html=1;fillColor=#e1d5e7;strokeColor=#9673a6;" vertex="1" parent="1">
          <mxGeometry x="215" y="600" width="140" height="90" as="geometry" />
        </mxCell>
        <mxCell id="8GlcsTd-VcIJwiDAIykF-117" style="edgeStyle=orthogonalEdgeStyle;rounded=0;orthogonalLoop=1;jettySize=auto;html=1;entryX=0.5;entryY=0;entryDx=0;entryDy=0;strokeWidth=2;strokeColor=#FF0000;" edge="1" parent="1" source="8GlcsTd-VcIJwiDAIykF-25" target="8GlcsTd-VcIJwiDAIykF-26">
          <mxGeometry relative="1" as="geometry">
            <Array as="points">
              <mxPoint x="670" y="700" />
              <mxPoint x="670" y="700" />
            </Array>
          </mxGeometry>
        </mxCell>
        <mxCell id="8GlcsTd-VcIJwiDAIykF-25" value="&lt;div&gt;3.10 Integración entre todos los módulos al sistema operativo de tiempo real&lt;/div&gt;&lt;div&gt;t=20&lt;br&gt;&lt;/div&gt;" style="rounded=0;whiteSpace=wrap;html=1;fillColor=#e1d5e7;strokeColor=#9673a6;" vertex="1" parent="1">
          <mxGeometry x="595" y="600" width="140" height="90" as="geometry" />
        </mxCell>
        <mxCell id="8GlcsTd-VcIJwiDAIykF-88" style="rounded=0;orthogonalLoop=1;jettySize=auto;html=1;" edge="1" parent="1" source="8GlcsTd-VcIJwiDAIykF-26" target="8GlcsTd-VcIJwiDAIykF-28">
          <mxGeometry relative="1" as="geometry" />
        </mxCell>
        <mxCell id="8GlcsTd-VcIJwiDAIykF-118" style="rounded=0;orthogonalLoop=1;jettySize=auto;html=1;strokeWidth=2;strokeColor=#FF0000;" edge="1" parent="1" source="8GlcsTd-VcIJwiDAIykF-26" target="8GlcsTd-VcIJwiDAIykF-27">
          <mxGeometry relative="1" as="geometry" />
        </mxCell>
        <mxCell id="8GlcsTd-VcIJwiDAIykF-26" value="&lt;div&gt;4.1 Armado del modelo de datos&lt;/div&gt;&lt;div&gt;t=12&lt;br&gt;&lt;/div&gt;" style="rounded=0;whiteSpace=wrap;html=1;fillColor=#b0e3e6;strokeColor=#0e8088;" vertex="1" parent="1">
          <mxGeometry x="610" y="720" width="120" height="60" as="geometry" />
        </mxCell>
        <mxCell id="8GlcsTd-VcIJwiDAIykF-84" style="edgeStyle=orthogonalEdgeStyle;rounded=0;orthogonalLoop=1;jettySize=auto;html=1;entryX=1;entryY=0.5;entryDx=0;entryDy=0;strokeWidth=2;strokeColor=#FF0000;" edge="1" parent="1" source="8GlcsTd-VcIJwiDAIykF-27" target="8GlcsTd-VcIJwiDAIykF-36">
          <mxGeometry relative="1" as="geometry" />
        </mxCell>
        <mxCell id="8GlcsTd-VcIJwiDAIykF-27" value="&lt;div&gt;4.2 Armado de maquetas funcionales para interfaz de usuario&lt;/div&gt;&lt;div&gt;t=8&lt;br&gt;&lt;/div&gt;" style="rounded=0;whiteSpace=wrap;html=1;fillColor=#b0e3e6;strokeColor=#0e8088;" vertex="1" parent="1">
          <mxGeometry x="530" y="800" width="130" height="80" as="geometry" />
        </mxCell>
        <mxCell id="8GlcsTd-VcIJwiDAIykF-89" style="edgeStyle=orthogonalEdgeStyle;rounded=0;orthogonalLoop=1;jettySize=auto;html=1;" edge="1" parent="1" source="8GlcsTd-VcIJwiDAIykF-28" target="8GlcsTd-VcIJwiDAIykF-29">
          <mxGeometry relative="1" as="geometry" />
        </mxCell>
        <mxCell id="8GlcsTd-VcIJwiDAIykF-28" value="&lt;div&gt;4.3 &lt;i&gt;Setup&lt;/i&gt; inicial del &lt;i&gt;backend&lt;/i&gt;&lt;/div&gt;&lt;div&gt;t=4&lt;br&gt;&lt;/div&gt;" style="rounded=0;whiteSpace=wrap;html=1;fillColor=#b0e3e6;strokeColor=#0e8088;" vertex="1" parent="1">
          <mxGeometry x="685" y="800" width="130" height="80" as="geometry" />
        </mxCell>
        <mxCell id="8GlcsTd-VcIJwiDAIykF-90" style="edgeStyle=orthogonalEdgeStyle;rounded=0;orthogonalLoop=1;jettySize=auto;html=1;" edge="1" parent="1" source="8GlcsTd-VcIJwiDAIykF-29" target="8GlcsTd-VcIJwiDAIykF-30">
          <mxGeometry relative="1" as="geometry" />
        </mxCell>
        <mxCell id="8GlcsTd-VcIJwiDAIykF-29" value="&lt;div&gt;4.4 Desarrollo de módulo de gestión de usuarios&lt;/div&gt;&lt;div&gt;t=16&lt;br&gt;&lt;/div&gt;" style="rounded=0;whiteSpace=wrap;html=1;fillColor=#b0e3e6;strokeColor=#0e8088;" vertex="1" parent="1">
          <mxGeometry x="850" y="800" width="130" height="80" as="geometry" />
        </mxCell>
        <mxCell id="8GlcsTd-VcIJwiDAIykF-91" style="edgeStyle=orthogonalEdgeStyle;rounded=0;orthogonalLoop=1;jettySize=auto;html=1;entryX=0.5;entryY=0;entryDx=0;entryDy=0;" edge="1" parent="1" source="8GlcsTd-VcIJwiDAIykF-30" target="8GlcsTd-VcIJwiDAIykF-34">
          <mxGeometry relative="1" as="geometry" />
        </mxCell>
        <mxCell id="8GlcsTd-VcIJwiDAIykF-30" value="&lt;div&gt;4.5 Desarrollo de módulo de gestión de dispositivos&lt;/div&gt;&lt;div&gt;t=16&lt;br&gt;&lt;/div&gt;" style="rounded=0;whiteSpace=wrap;html=1;fillColor=#b0e3e6;strokeColor=#0e8088;" vertex="1" parent="1">
          <mxGeometry x="1021" y="800" width="130" height="80" as="geometry" />
        </mxCell>
        <mxCell id="8GlcsTd-VcIJwiDAIykF-106" style="rounded=0;orthogonalLoop=1;jettySize=auto;html=1;entryX=0.75;entryY=0;entryDx=0;entryDy=0;" edge="1" parent="1" source="8GlcsTd-VcIJwiDAIykF-31" target="8GlcsTd-VcIJwiDAIykF-40">
          <mxGeometry relative="1" as="geometry" />
        </mxCell>
        <mxCell id="8GlcsTd-VcIJwiDAIykF-31" value="&lt;div&gt;4.8 Implementación de pruebas unitarias generales del &lt;i&gt;backend&lt;/i&gt;&lt;/div&gt;&lt;div&gt;t=20&lt;br&gt;&lt;/div&gt;" style="rounded=0;whiteSpace=wrap;html=1;fillColor=#b0e3e6;strokeColor=#0e8088;" vertex="1" parent="1">
          <mxGeometry x="725" y="900" width="130" height="80" as="geometry" />
        </mxCell>
        <mxCell id="8GlcsTd-VcIJwiDAIykF-93" style="edgeStyle=orthogonalEdgeStyle;rounded=0;orthogonalLoop=1;jettySize=auto;html=1;" edge="1" parent="1" source="8GlcsTd-VcIJwiDAIykF-33" target="8GlcsTd-VcIJwiDAIykF-31">
          <mxGeometry relative="1" as="geometry" />
        </mxCell>
        <mxCell id="8GlcsTd-VcIJwiDAIykF-33" value="&lt;div&gt;4.7 Desarrollo del módulo de gestión de alertas&lt;/div&gt;&lt;div&gt;t=20&lt;br&gt;&lt;/div&gt;" style="rounded=0;whiteSpace=wrap;html=1;fillColor=#b0e3e6;strokeColor=#0e8088;" vertex="1" parent="1">
          <mxGeometry x="881" y="910" width="120" height="60" as="geometry" />
        </mxCell>
        <mxCell id="8GlcsTd-VcIJwiDAIykF-92" style="edgeStyle=orthogonalEdgeStyle;rounded=0;orthogonalLoop=1;jettySize=auto;html=1;" edge="1" parent="1" source="8GlcsTd-VcIJwiDAIykF-34" target="8GlcsTd-VcIJwiDAIykF-33">
          <mxGeometry relative="1" as="geometry" />
        </mxCell>
        <mxCell id="8GlcsTd-VcIJwiDAIykF-34" value="&lt;div&gt;4.6 Implementación de módulo de recepción de alertas&lt;/div&gt;&lt;div&gt;t=16&lt;br&gt;&lt;/div&gt;" style="rounded=0;whiteSpace=wrap;html=1;fillColor=#b0e3e6;strokeColor=#0e8088;" vertex="1" parent="1">
          <mxGeometry x="1026" y="910" width="120" height="60" as="geometry" />
        </mxCell>
        <mxCell id="8GlcsTd-VcIJwiDAIykF-85" style="edgeStyle=orthogonalEdgeStyle;rounded=0;orthogonalLoop=1;jettySize=auto;html=1;strokeWidth=2;strokeColor=#FF0000;" edge="1" parent="1" source="8GlcsTd-VcIJwiDAIykF-36" target="8GlcsTd-VcIJwiDAIykF-37">
          <mxGeometry relative="1" as="geometry" />
        </mxCell>
        <mxCell id="8GlcsTd-VcIJwiDAIykF-36" value="&lt;div&gt;4.9 &lt;i&gt;Setup&lt;/i&gt; inicial del &lt;i&gt;frontend&lt;/i&gt;&lt;/div&gt;&lt;div&gt;t=2&lt;br&gt;&lt;/div&gt;" style="rounded=0;whiteSpace=wrap;html=1;fillColor=#b0e3e6;strokeColor=#0e8088;" vertex="1" parent="1">
          <mxGeometry x="380" y="810" width="120" height="60" as="geometry" />
        </mxCell>
        <mxCell id="8GlcsTd-VcIJwiDAIykF-86" style="edgeStyle=orthogonalEdgeStyle;rounded=0;orthogonalLoop=1;jettySize=auto;html=1;entryX=-0.004;entryY=0.588;entryDx=0;entryDy=0;entryPerimeter=0;strokeWidth=2;strokeColor=#FF0000;" edge="1" parent="1" source="8GlcsTd-VcIJwiDAIykF-37" target="8GlcsTd-VcIJwiDAIykF-38">
          <mxGeometry relative="1" as="geometry" />
        </mxCell>
        <mxCell id="8GlcsTd-VcIJwiDAIykF-37" value="&lt;div&gt;4.10 Desarrollo de interfaces de usuario de administración&lt;/div&gt;&lt;div&gt;t=25&lt;br&gt;&lt;/div&gt;" style="rounded=0;whiteSpace=wrap;html=1;fillColor=#b0e3e6;strokeColor=#0e8088;" vertex="1" parent="1">
          <mxGeometry x="230" y="810" width="120" height="60" as="geometry" />
        </mxCell>
        <mxCell id="8GlcsTd-VcIJwiDAIykF-87" style="edgeStyle=orthogonalEdgeStyle;rounded=0;orthogonalLoop=1;jettySize=auto;html=1;entryX=0;entryY=0.5;entryDx=0;entryDy=0;strokeWidth=2;strokeColor=#FF0000;" edge="1" parent="1" source="8GlcsTd-VcIJwiDAIykF-38" target="8GlcsTd-VcIJwiDAIykF-41">
          <mxGeometry relative="1" as="geometry" />
        </mxCell>
        <mxCell id="8GlcsTd-VcIJwiDAIykF-38" value="&lt;div&gt;4.11 Desarrollo de interfaz de usuario para gestión de alertas&lt;/div&gt;&lt;div&gt;t=40&lt;br&gt;&lt;/div&gt;" style="rounded=0;whiteSpace=wrap;html=1;fillColor=#b0e3e6;strokeColor=#0e8088;" vertex="1" parent="1">
          <mxGeometry x="320" y="900" width="130" height="80" as="geometry" />
        </mxCell>
        <mxCell id="8GlcsTd-VcIJwiDAIykF-96" style="rounded=0;orthogonalLoop=1;jettySize=auto;html=1;strokeWidth=2;strokeColor=#FF0000;" edge="1" parent="1" source="8GlcsTd-VcIJwiDAIykF-40" target="8GlcsTd-VcIJwiDAIykF-42">
          <mxGeometry relative="1" as="geometry" />
        </mxCell>
        <mxCell id="8GlcsTd-VcIJwiDAIykF-97" style="rounded=0;orthogonalLoop=1;jettySize=auto;html=1;" edge="1" parent="1" source="8GlcsTd-VcIJwiDAIykF-40" target="8GlcsTd-VcIJwiDAIykF-43">
          <mxGeometry relative="1" as="geometry" />
        </mxCell>
        <mxCell id="8GlcsTd-VcIJwiDAIykF-40" value="&lt;div&gt;4.13 Despliegue del sistema web&lt;/div&gt;&lt;div&gt;t=6&lt;br&gt;&lt;/div&gt;" style="rounded=0;whiteSpace=wrap;html=1;fillColor=#b0e3e6;strokeColor=#0e8088;" vertex="1" parent="1">
          <mxGeometry x="605" y="1000" width="120" height="60" as="geometry" />
        </mxCell>
        <mxCell id="8GlcsTd-VcIJwiDAIykF-105" style="rounded=0;orthogonalLoop=1;jettySize=auto;html=1;entryX=0.25;entryY=0;entryDx=0;entryDy=0;strokeWidth=2;strokeColor=#FF0000;" edge="1" parent="1" source="8GlcsTd-VcIJwiDAIykF-41" target="8GlcsTd-VcIJwiDAIykF-40">
          <mxGeometry relative="1" as="geometry" />
        </mxCell>
        <mxCell id="8GlcsTd-VcIJwiDAIykF-41" value="&lt;div&gt;4.12 Integración al &lt;i&gt;backend&lt;/i&gt; y pruebas de interfaces de usuario&lt;/div&gt;&lt;div&gt;t=20&lt;br&gt;&lt;/div&gt;" style="rounded=0;whiteSpace=wrap;html=1;fillColor=#b0e3e6;strokeColor=#0e8088;" vertex="1" parent="1">
          <mxGeometry x="490" y="900" width="145" height="80" as="geometry" />
        </mxCell>
        <mxCell id="8GlcsTd-VcIJwiDAIykF-98" style="edgeStyle=orthogonalEdgeStyle;rounded=0;orthogonalLoop=1;jettySize=auto;html=1;strokeWidth=2;strokeColor=#FF0000;" edge="1" parent="1" source="8GlcsTd-VcIJwiDAIykF-42" target="8GlcsTd-VcIJwiDAIykF-44">
          <mxGeometry relative="1" as="geometry" />
        </mxCell>
        <mxCell id="8GlcsTd-VcIJwiDAIykF-42" value="&lt;div&gt;5.1 Pruebas del dispositivo&lt;/div&gt;&lt;div&gt;t=30&lt;br&gt;&lt;/div&gt;" style="rounded=0;whiteSpace=wrap;html=1;fillColor=#fad7ac;strokeColor=#b46504;" vertex="1" parent="1">
          <mxGeometry x="610" y="1080" width="120" height="60" as="geometry" />
        </mxCell>
        <mxCell id="8GlcsTd-VcIJwiDAIykF-100" style="edgeStyle=orthogonalEdgeStyle;rounded=0;orthogonalLoop=1;jettySize=auto;html=1;" edge="1" parent="1" source="8GlcsTd-VcIJwiDAIykF-43" target="8GlcsTd-VcIJwiDAIykF-45">
          <mxGeometry relative="1" as="geometry" />
        </mxCell>
        <mxCell id="8GlcsTd-VcIJwiDAIykF-43" value="&lt;div&gt;5.2 Pruebas del sistema web&lt;/div&gt;&lt;div&gt;t=28&lt;br&gt;&lt;/div&gt;" style="rounded=0;whiteSpace=wrap;html=1;fillColor=#fad7ac;strokeColor=#b46504;" vertex="1" parent="1">
          <mxGeometry x="761" y="1000" width="120" height="60" as="geometry" />
        </mxCell>
        <mxCell id="8GlcsTd-VcIJwiDAIykF-120" style="edgeStyle=orthogonalEdgeStyle;rounded=0;orthogonalLoop=1;jettySize=auto;html=1;strokeWidth=2;strokeColor=#FF0000;" edge="1" parent="1" source="8GlcsTd-VcIJwiDAIykF-44" target="8GlcsTd-VcIJwiDAIykF-46">
          <mxGeometry relative="1" as="geometry" />
        </mxCell>
        <mxCell id="8GlcsTd-VcIJwiDAIykF-44" value="&lt;div&gt;6.1 Elaboración del manual del dispositivo&lt;/div&gt;&lt;div&gt;t=20&lt;br&gt;&lt;/div&gt;" style="rounded=0;whiteSpace=wrap;html=1;fillColor=#bac8d3;strokeColor=#23445d;" vertex="1" parent="1">
          <mxGeometry x="780" y="1080" width="120" height="60" as="geometry" />
        </mxCell>
        <mxCell id="8GlcsTd-VcIJwiDAIykF-119" style="edgeStyle=orthogonalEdgeStyle;rounded=0;orthogonalLoop=1;jettySize=auto;html=1;entryX=0.5;entryY=0;entryDx=0;entryDy=0;" edge="1" parent="1" source="8GlcsTd-VcIJwiDAIykF-45" target="8GlcsTd-VcIJwiDAIykF-46">
          <mxGeometry relative="1" as="geometry" />
        </mxCell>
        <mxCell id="8GlcsTd-VcIJwiDAIykF-45" value="&lt;div&gt;6.2 Elaboración de documentación del sistema web&lt;/div&gt;&lt;div&gt;t=16&lt;br&gt;&lt;/div&gt;" style="rounded=0;whiteSpace=wrap;html=1;fillColor=#bac8d3;strokeColor=#23445d;" vertex="1" parent="1">
          <mxGeometry x="950" y="1000" width="120" height="60" as="geometry" />
        </mxCell>
        <mxCell id="8GlcsTd-VcIJwiDAIykF-103" style="edgeStyle=orthogonalEdgeStyle;rounded=0;orthogonalLoop=1;jettySize=auto;html=1;strokeWidth=2;strokeColor=#FF0000;" edge="1" parent="1" source="8GlcsTd-VcIJwiDAIykF-46" target="8GlcsTd-VcIJwiDAIykF-47">
          <mxGeometry relative="1" as="geometry" />
        </mxCell>
        <mxCell id="8GlcsTd-VcIJwiDAIykF-46" value="&lt;div&gt;7.1 Elaboración de memoria técnica del proyecto&lt;/div&gt;&lt;div&gt;t=40&lt;br&gt;&lt;/div&gt;" style="rounded=0;whiteSpace=wrap;html=1;fillColor=#bac8d3;strokeColor=#23445d;" vertex="1" parent="1">
          <mxGeometry x="950" y="1080" width="120" height="60" as="geometry" />
        </mxCell>
        <mxCell id="8GlcsTd-VcIJwiDAIykF-104" style="edgeStyle=orthogonalEdgeStyle;rounded=0;orthogonalLoop=1;jettySize=auto;html=1;strokeWidth=2;strokeColor=#FF0000;" edge="1" parent="1" source="8GlcsTd-VcIJwiDAIykF-47" target="8GlcsTd-VcIJwiDAIykF-82">
          <mxGeometry relative="1" as="geometry" />
        </mxCell>
        <mxCell id="8GlcsTd-VcIJwiDAIykF-47" value="&lt;div&gt;7.2 Elaboración de presentación del proyecto&lt;/div&gt;&lt;div&gt;t=20&lt;br&gt;&lt;/div&gt;" style="rounded=0;whiteSpace=wrap;html=1;fillColor=#bac8d3;strokeColor=#23445d;" vertex="1" parent="1">
          <mxGeometry x="950" y="1169" width="120" height="60" as="geometry" />
        </mxCell>
        <mxCell id="8GlcsTd-VcIJwiDAIykF-82" value="Fin" style="ellipse;whiteSpace=wrap;html=1;fontStyle=1" vertex="1" parent="1">
          <mxGeometry x="635" y="1168" width="85" height="61" as="geometry" />
        </mxCell>
        <mxCell id="8GlcsTd-VcIJwiDAIykF-108" value="&lt;div&gt;Planificación del proyecto&lt;/div&gt;&lt;div&gt;t=46&lt;br&gt;&lt;/div&gt;" style="rounded=0;whiteSpace=wrap;html=1;fillColor=#f5f5f5;fontColor=#333333;strokeColor=#666666;" vertex="1" parent="1">
          <mxGeometry x="981" y="160" width="119" height="60" as="geometry" />
        </mxCell>
        <mxCell id="8GlcsTd-VcIJwiDAIykF-109" value="&lt;div&gt;Investigación previa&lt;/div&gt;&lt;div&gt;t=60&lt;br&gt;&lt;/div&gt;" style="rounded=0;whiteSpace=wrap;html=1;fillColor=#d5e8d4;strokeColor=#82b366;" vertex="1" parent="1">
          <mxGeometry x="981" y="220" width="119" height="60" as="geometry" />
        </mxCell>
        <mxCell id="8GlcsTd-VcIJwiDAIykF-110" value="&lt;div&gt;Desarrollo e implementación de dispositivo embebido&lt;br&gt;&lt;/div&gt;&lt;div&gt;t=134&lt;br&gt;&lt;/div&gt;" style="rounded=0;whiteSpace=wrap;html=1;fillColor=#e1d5e7;strokeColor=#9673a6;" vertex="1" parent="1">
          <mxGeometry x="981" y="280" width="119" height="60" as="geometry" />
        </mxCell>
        <mxCell id="8GlcsTd-VcIJwiDAIykF-111" value="&lt;div&gt;Desarrollo y despliegue de sistema web&lt;/div&gt;&lt;div&gt;t=209&lt;br&gt;&lt;/div&gt;" style="rounded=0;whiteSpace=wrap;html=1;fillColor=#b0e3e6;strokeColor=#0e8088;" vertex="1" parent="1">
          <mxGeometry x="981" y="340" width="119" height="70" as="geometry" />
        </mxCell>
        <mxCell id="8GlcsTd-VcIJwiDAIykF-112" value="&lt;div&gt;Pruebas de funcionamiento del sistema&lt;/div&gt;&lt;div&gt;t=58&lt;br&gt;&lt;/div&gt;" style="rounded=0;whiteSpace=wrap;html=1;fillColor=#fad7ac;strokeColor=#b46504;" vertex="1" parent="1">
          <mxGeometry x="981" y="410" width="120" height="60" as="geometry" />
        </mxCell>
        <mxCell id="8GlcsTd-VcIJwiDAIykF-113" value="&lt;div&gt;Elaboración de documentación de cierre&lt;/div&gt;&lt;div&gt;t=96&lt;br&gt;&lt;/div&gt;" style="rounded=0;whiteSpace=wrap;html=1;fillColor=#bac8d3;strokeColor=#23445d;" vertex="1" parent="1">
          <mxGeometry x="981" y="470" width="120" height="60" as="geometry" />
        </mxCell>
        <mxCell id="8GlcsTd-VcIJwiDAIykF-114" value="Referencias" style="text;html=1;align=center;verticalAlign=middle;resizable=0;points=[];autosize=1;strokeColor=none;fillColor=none;fontSize=14;fontStyle=1" vertex="1" parent="1">
          <mxGeometry x="970" y="75" width="100" height="30" as="geometry" />
        </mxCell>
        <mxCell id="8GlcsTd-VcIJwiDAIykF-115" value="&lt;div&gt;Todas las duraciones&amp;nbsp;&lt;/div&gt;&lt;div&gt;están expresadas en horas&lt;/div&gt;" style="text;html=1;align=left;verticalAlign=middle;resizable=0;points=[];autosize=1;strokeColor=none;fillColor=none;" vertex="1" parent="1">
          <mxGeometry x="981" y="105" width="170" height="40" as="geometry" />
        </mxCell>
      </root>
    </mxGraphModel>
  </diagram>
</mxfile>
